<?xml version="1.0" standalone="no"?>
<!DOCTYPE svg PUBLIC "-//W3C//DTD SVG 20010904//EN"
 "http://www.w3.org/TR/2001/REC-SVG-20010904/DTD/svg10.dtd">
<svg version="1.0" xmlns="http://www.w3.org/2000/svg"
 width="267.000000pt" height="267.000000pt" viewBox="0 0 267.000000 267.000000"
 preserveAspectRatio="xMidYMid meet">
<metadata>
Created by potrace 1.14, written by Peter Selinger 2001-2017
</metadata>
<g transform="translate(0.000000,267.000000) scale(0.100000,-0.100000)"
fill="#000000" stroke="none">
<path d="M1230 2420 c-19 -3 -42 -5 -50 -5 -8 0 -18 -4 -22 -10 -5 -6 -8 -5
-8 4 0 10 -4 11 -12 3 -7 -5 -26 -12 -43 -15 -52 -8 -90 -19 -102 -30 -7 -5
-13 -6 -13 -1 0 4 -5 3 -12 -4 -7 -7 -18 -12 -26 -12 -23 0 -123 -52 -211
-109 -103 -68 -257 -218 -290 -283 -8 -16 -18 -28 -23 -28 -4 0 -8 -5 -8 -11
0 -6 -9 -23 -20 -39 -11 -15 -17 -30 -13 -34 3 -3 1 -6 -5 -6 -6 0 -14 -10
-18 -22 -3 -12 -13 -37 -22 -57 -9 -20 -15 -39 -14 -43 1 -5 -3 -8 -9 -8 -5 0
-7 -5 -4 -10 4 -6 1 -17 -5 -25 -7 -8 -9 -15 -5 -15 4 0 3 -6 -2 -12 -6 -7
-14 -31 -18 -53 -4 -22 -10 -53 -13 -70 -3 -16 -6 -42 -6 -57 -1 -16 -3 -28
-6 -28 -9 0 1 -287 10 -297 2 -2 3 -11 4 -20 1 -10 10 -45 20 -78 10 -33 19
-66 19 -72 0 -7 4 -13 9 -13 4 0 7 -3 6 -8 -1 -4 3 -22 9 -40 7 -18 12 -35 12
-39 -1 -3 6 -10 14 -14 8 -5 18 -20 21 -34 7 -29 71 -128 104 -161 6 -7 12
-16 12 -19 0 -13 182 -185 196 -185 2 0 14 -8 25 -19 11 -10 37 -27 57 -37 20
-11 40 -23 44 -29 4 -5 8 -6 8 -2 0 5 7 1 16 -7 8 -9 20 -14 25 -11 5 4 9 2 9
-2 0 -9 99 -49 113 -45 4 1 7 -3 7 -10 0 -6 3 -9 6 -5 3 3 23 -1 45 -8 22 -8
41 -14 44 -15 3 0 6 0 8 -1 5 -2 64 -9 105 -13 24 -2 46 -6 49 -10 12 -12 34
-6 27 7 -6 9 -5 9 7 1 9 -8 43 -10 99 -7 47 3 97 6 113 6 15 1 27 5 27 10 0 4
4 6 8 3 5 -3 26 -1 47 5 51 14 78 20 93 21 6 1 12 5 12 10 0 4 3 7 8 6 4 -1
23 4 42 11 19 8 38 13 43 12 4 0 7 3 7 9 0 6 3 9 8 8 11 -4 72 26 72 35 0 5 5
5 10 2 6 -3 10 -1 10 4 0 6 5 11 12 11 6 0 26 11 44 25 18 14 35 25 37 25 12
0 197 172 197 183 0 3 13 20 29 37 16 18 44 59 62 92 19 33 39 65 44 71 6 7
11 17 12 22 1 6 12 33 24 60 12 28 23 52 24 55 10 35 28 97 29 105 1 6 4 15 7
20 3 6 5 22 4 38 0 15 2 27 5 27 4 0 8 17 9 38 1 20 3 53 5 72 1 19 -3 41 -9
49 -7 11 -7 13 3 7 10 -6 12 4 10 43 -2 28 -5 51 -8 51 -3 0 -5 21 -5 48 1 26
-2 52 -4 57 -3 6 -6 18 -7 28 -1 9 -3 19 -4 22 -1 3 -3 8 -4 13 -14 63 -63
199 -79 221 -6 7 -12 20 -13 28 -2 13 -77 130 -114 177 -38 49 -210 213 -210
201 0 -3 -9 2 -19 12 -11 10 -37 27 -58 38 -21 11 -40 22 -43 25 -4 5 -97 52
-110 55 -3 1 -13 5 -22 9 -9 4 -23 9 -32 10 -8 1 -19 5 -22 9 -4 4 -18 7 -30
7 -13 0 -25 4 -28 9 -3 4 -29 11 -58 15 -29 4 -66 10 -83 12 -48 8 -207 10
-245 4z"/>
</g>
</svg>
